<?xml version="1.0" encoding="utf-8"?>
<!-- Svg Vector Icons : http://www.onlinewebfonts.com/icon -->
<!DOCTYPE svg PUBLIC "-//W3C//DTD SVG 1.1//EN" "http://www.w3.org/Graphics/SVG/1.1/DTD/svg11.dtd">
<svg version="1.1" xmlns="http://www.w3.org/2000/svg" xmlns:xlink="http://www.w3.org/1999/xlink" x="0px" y="0px" viewBox="0 0 1000 1000" enable-background="new 0 0 1000 1000" xml:space="preserve">
<metadata> Svg Vector Icons : http://www.onlinewebfonts.com/icon </metadata>
<g><path d="M809.3,479.2c3.1,23,4.1,46.5,2.7,70.5c-11.8,206.7-189.5,365.2-396.1,353.4C209.2,891.3,50.6,713.7,62.4,507c11.8-206.6,189.5-365.2,396.1-353.4c49.1,2.8,95.5,15.1,137.6,34.8l22-46.9c-47.9-22.5-100.7-36.4-156.6-39.6C226.3,88.5,24.1,268.9,10.7,504.1c-13.4,235.2,167,437.4,402.2,450.8c235.2,13.3,437.4-167.1,450.8-402.2c1.5-27.3,0.4-54.1-3.1-80.3L809.3,479.2z M119.8,510.3c-10,175.3,124,325.5,299.3,335.4c175.3,10,325.4-124,335.5-299.3c1.1-20.3,0.3-40.2-2.2-59.7l-315.2,41.6l134.6-288c-35.6-16.7-74.9-27-116.5-29.4C279.9,201,129.7,335,119.8,510.3z M174.5,474.5c1.8-32.1,29.3-56.7,61.5-54.9c32.1,1.8,56.7,29.4,54.9,61.5c-1.8,32.1-29.4,56.6-61.5,54.8C197.1,534.1,172.6,506.6,174.5,474.5z M266.8,674.2c-21.4-1.2-37.8-19.5-36.6-41c1.2-21.3,19.6-37.7,41-36.5s37.8,19.6,36.6,41C306.6,659.1,288.2,675.4,266.8,674.2z M603.4,570.2c21.4,1.2,37.7,19.6,36.5,41c-1.2,21.4-19.5,37.8-40.9,36.6c-21.5-1.2-37.8-19.6-36.6-41C563.6,585.4,582,569,603.4,570.2z M485.8,699.7c-1.8,32.1-29.3,56.7-61.4,54.9c-32.1-1.8-56.7-29.4-54.9-61.5s29.4-56.7,61.5-54.9C463,640,487.6,667.6,485.8,699.7z M386,402.3c-32.1-1.8-56.7-29.3-54.9-61.4c1.8-32.2,29.3-56.7,61.4-54.9c32.1,1.8,56.7,29.3,54.9,61.5C445.6,379.5,418.1,404.1,386,402.3z M701.3,143.3l-134.7,288l315.2-41.7C867.6,281.1,798.1,188.6,701.3,143.3z M751.2,376.9c-21.3-1.2-37.7-19.6-36.5-40.9c1.2-21.5,19.6-37.8,40.9-36.6c21.5,1.2,37.8,19.5,36.6,41C790.9,361.8,772.7,378.2,751.2,376.9z M747.5,44.4l-21.9,46.9C839.8,144.9,921.8,254.1,938.6,382l51.4-6.8C970.8,229.6,877.5,105.4,747.5,44.4z"/></g>
</svg>